<svg width="135" height="30" viewBox="0 0 135 30" fill="none" xmlns="http://www.w3.org/2000/svg">
<path d="M12.5 29.4C10.0467 29.4 7.95333 28.9733 6.22 28.12C4.51333 27.2667 3.18 26.04 2.22 24.44C1.28667 22.8133 0.78 20.88 0.7 18.64C0.673333 17.4933 0.66 16.2667 0.66 14.96C0.66 13.6267 0.673333 12.3733 0.7 11.2C0.78 8.98667 1.28667 7.09333 2.22 5.52C3.18 3.94667 4.52667 2.73333 6.26 1.88C8.02 1.02667 10.1 0.599998 12.5 0.599998C14.4467 0.599998 16.1533 0.866665 17.62 1.4C19.0867 1.90667 20.3 2.57333 21.26 3.4C22.2467 4.2 22.98 5.06667 23.46 6C23.9667 6.93333 24.2333 7.8 24.26 8.6C24.2867 8.84 24.22 9.04 24.06 9.2C23.9 9.36 23.6867 9.44 23.42 9.44H19.3C19.0333 9.44 18.8333 9.38667 18.7 9.28C18.5667 9.17333 18.4467 9.01333 18.34 8.8C18.1267 8.24 17.7933 7.69333 17.34 7.16C16.8867 6.6 16.2733 6.13333 15.5 5.76C14.7267 5.38667 13.7267 5.2 12.5 5.2C10.6867 5.2 9.23333 5.68 8.14 6.64C7.07333 7.6 6.5 9.18667 6.42 11.4C6.34 13.72 6.34 16.0667 6.42 18.44C6.5 20.7067 7.08667 22.3333 8.18 23.32C9.3 24.3067 10.7667 24.8 12.58 24.8C13.78 24.8 14.8467 24.5867 15.78 24.16C16.74 23.7333 17.4867 23.0667 18.02 22.16C18.58 21.2533 18.86 20.0933 18.86 18.68V17.44H13.98C13.7133 17.44 13.4867 17.3467 13.3 17.16C13.1133 16.9733 13.02 16.7333 13.02 16.44V14.32C13.02 14.0267 13.1133 13.7867 13.3 13.6C13.4867 13.4133 13.7133 13.32 13.98 13.32H23.54C23.8333 13.32 24.06 13.4133 24.22 13.6C24.4067 13.7867 24.5 14.0267 24.5 14.32V18.52C24.5 20.76 24.0067 22.6933 23.02 24.32C22.06 25.9467 20.6733 27.2 18.86 28.08C17.0733 28.96 14.9533 29.4 12.5 29.4ZM38.1078 29.4C35.1478 29.4 32.8011 28.5467 31.0678 26.84C29.3345 25.1333 28.4011 22.7067 28.2678 19.56C28.2411 19.2933 28.2278 18.96 28.2278 18.56C28.2278 18.1333 28.2411 17.8 28.2678 17.56C28.3745 15.56 28.8278 13.8267 29.6278 12.36C30.4545 10.8933 31.5878 9.77333 33.0278 9C34.4678 8.2 36.1611 7.8 38.1078 7.8C40.2678 7.8 42.0811 8.25333 43.5478 9.16C45.0145 10.04 46.1211 11.28 46.8678 12.88C47.6145 14.4533 47.9878 16.28 47.9878 18.36V19.2C47.9878 19.4667 47.8945 19.6933 47.7078 19.88C47.5211 20.0667 47.2811 20.16 46.9878 20.16H33.7078C33.7078 20.16 33.7078 20.2 33.7078 20.28C33.7078 20.36 33.7078 20.4267 33.7078 20.48C33.7345 21.4133 33.9078 22.28 34.2278 23.08C34.5745 23.8533 35.0678 24.48 35.7078 24.96C36.3745 25.44 37.1611 25.68 38.0678 25.68C38.8145 25.68 39.4411 25.5733 39.9478 25.36C40.4545 25.12 40.8678 24.8533 41.1878 24.56C41.5078 24.2667 41.7345 24.0267 41.8678 23.84C42.1078 23.52 42.2945 23.3333 42.4278 23.28C42.5878 23.2 42.8145 23.16 43.1078 23.16H46.5478C46.8145 23.16 47.0278 23.24 47.1878 23.4C47.3745 23.56 47.4545 23.76 47.4278 24C47.4011 24.4267 47.1745 24.9467 46.7478 25.56C46.3478 26.1733 45.7611 26.7733 44.9878 27.36C44.2145 27.9467 43.2411 28.44 42.0678 28.84C40.9211 29.2133 39.6011 29.4 38.1078 29.4ZM33.7078 16.8H42.5478V16.68C42.5478 15.64 42.3745 14.7333 42.0278 13.96C41.6811 13.1867 41.1745 12.5733 40.5078 12.12C39.8411 11.6667 39.0411 11.44 38.1078 11.44C37.1745 11.44 36.3745 11.6667 35.7078 12.12C35.0411 12.5733 34.5345 13.1867 34.1878 13.96C33.8678 14.7333 33.7078 15.64 33.7078 16.68V16.8ZM60.1138 29.4C58.5138 29.4 57.1404 29.2133 55.9938 28.84C54.8738 28.4667 53.9538 28 53.2338 27.44C52.5138 26.88 51.9804 26.32 51.6338 25.76C51.2871 25.2 51.1004 24.7333 51.0738 24.36C51.0471 24.0667 51.1271 23.84 51.3138 23.68C51.5271 23.4933 51.7538 23.4 51.9938 23.4H55.1538C55.2604 23.4 55.3538 23.4133 55.4338 23.44C55.5138 23.4667 55.6204 23.5467 55.7538 23.68C56.1004 23.9733 56.4604 24.28 56.8338 24.6C57.2338 24.92 57.7004 25.2 58.2338 25.44C58.7671 25.6533 59.4338 25.76 60.2338 25.76C61.2738 25.76 62.1404 25.56 62.8338 25.16C63.5538 24.7333 63.9138 24.1333 63.9138 23.36C63.9138 22.8 63.7538 22.3467 63.4338 22C63.1404 21.6533 62.5804 21.3467 61.7538 21.08C60.9271 20.7867 59.7538 20.48 58.2338 20.16C56.7404 19.8133 55.5004 19.3733 54.5138 18.84C53.5271 18.3067 52.7938 17.64 52.3138 16.84C51.8338 16.04 51.5938 15.1067 51.5938 14.04C51.5938 13 51.9004 12.0133 52.5138 11.08C53.1538 10.12 54.0871 9.33333 55.3138 8.72C56.5671 8.10667 58.1138 7.8 59.9538 7.8C61.3938 7.8 62.6471 7.98667 63.7138 8.36C64.7804 8.70667 65.6604 9.14667 66.3538 9.68C67.0738 10.2133 67.6204 10.76 67.9938 11.32C68.3671 11.8533 68.5671 12.32 68.5938 12.72C68.6204 13.0133 68.5404 13.2533 68.3538 13.44C68.1671 13.6 67.9538 13.68 67.7138 13.68H64.7538C64.6204 13.68 64.5004 13.6533 64.3938 13.6C64.2871 13.5467 64.1804 13.48 64.0738 13.4C63.7804 13.1333 63.4604 12.8533 63.1138 12.56C62.7671 12.2667 62.3404 12.0133 61.8338 11.8C61.3538 11.56 60.7138 11.44 59.9138 11.44C58.9004 11.44 58.1271 11.6667 57.5938 12.12C57.0604 12.5467 56.7938 13.0933 56.7938 13.76C56.7938 14.2133 56.9138 14.6133 57.1538 14.96C57.4204 15.28 57.9404 15.5867 58.7138 15.88C59.4871 16.1733 60.6604 16.48 62.2338 16.8C64.0204 17.12 65.4338 17.6 66.4738 18.24C67.5404 18.8533 68.2871 19.5733 68.7138 20.4C69.1671 21.2 69.3938 22.0933 69.3938 23.08C69.3938 24.28 69.0338 25.36 68.3138 26.32C67.6204 27.28 66.5804 28.04 65.1938 28.6C63.8338 29.1333 62.1404 29.4 60.1138 29.4ZM82.8447 29C81.2447 29 79.898 28.72 78.8047 28.16C77.7114 27.6 76.898 26.7733 76.3647 25.68C75.8314 24.56 75.5647 23.1733 75.5647 21.52V12.44H72.4047C72.138 12.44 71.9114 12.3467 71.7247 12.16C71.538 11.9733 71.4447 11.7467 71.4447 11.48V9.16C71.4447 8.89333 71.538 8.66667 71.7247 8.48C71.9114 8.29333 72.138 8.2 72.4047 8.2H75.5647V1.56C75.5647 1.29333 75.6447 1.06667 75.8047 0.88C75.9914 0.693332 76.2314 0.599998 76.5247 0.599998H79.7647C80.0314 0.599998 80.258 0.693332 80.4447 0.88C80.6314 1.06667 80.7247 1.29333 80.7247 1.56V8.2H85.7247C85.9914 8.2 86.218 8.29333 86.4047 8.48C86.5914 8.66667 86.6847 8.89333 86.6847 9.16V11.48C86.6847 11.7467 86.5914 11.9733 86.4047 12.16C86.218 12.3467 85.9914 12.44 85.7247 12.44H80.7247V21.12C80.7247 22.2133 80.9114 23.0667 81.2847 23.68C81.6847 24.2933 82.3647 24.6 83.3247 24.6H86.0847C86.3514 24.6 86.578 24.6933 86.7647 24.88C86.9514 25.0667 87.0447 25.2933 87.0447 25.56V28.04C87.0447 28.3067 86.9514 28.5333 86.7647 28.72C86.578 28.9067 86.3514 29 86.0847 29H82.8447ZM99.7931 29.4C97.6598 29.4 95.8598 29.0267 94.3931 28.28C92.9531 27.5333 91.8465 26.48 91.0731 25.12C90.3265 23.76 89.8998 22.1733 89.7931 20.36C89.7665 19.88 89.7531 19.2933 89.7531 18.6C89.7531 17.9067 89.7665 17.32 89.7931 16.84C89.8998 15 90.3398 13.4133 91.1131 12.08C91.9131 10.72 93.0331 9.66667 94.4731 8.92C95.9398 8.17333 97.7131 7.8 99.7931 7.8C101.873 7.8 103.633 8.17333 105.073 8.92C106.54 9.66667 107.66 10.72 108.433 12.08C109.233 13.4133 109.686 15 109.793 16.84C109.82 17.32 109.833 17.9067 109.833 18.6C109.833 19.2933 109.82 19.88 109.793 20.36C109.686 22.1733 109.246 23.76 108.473 25.12C107.726 26.48 106.62 27.5333 105.153 28.28C103.713 29.0267 101.926 29.4 99.7931 29.4ZM99.7931 25.44C101.206 25.44 102.3 25 103.073 24.12C103.846 23.2133 104.273 21.8933 104.353 20.16C104.38 19.76 104.393 19.24 104.393 18.6C104.393 17.96 104.38 17.44 104.353 17.04C104.273 15.3333 103.846 14.0267 103.073 13.12C102.3 12.2133 101.206 11.76 99.7931 11.76C98.3798 11.76 97.2865 12.2133 96.5131 13.12C95.7398 14.0267 95.3131 15.3333 95.2331 17.04C95.2065 17.44 95.1931 17.96 95.1931 18.6C95.1931 19.24 95.2065 19.76 95.2331 20.16C95.3131 21.8933 95.7398 23.2133 96.5131 24.12C97.2865 25 98.3798 25.44 99.7931 25.44ZM115.225 29C114.958 29 114.732 28.9067 114.545 28.72C114.358 28.5333 114.265 28.3067 114.265 28.04V9.2C114.265 8.90667 114.358 8.66667 114.545 8.48C114.732 8.29333 114.958 8.2 115.225 8.2H118.465C118.732 8.2 118.958 8.29333 119.145 8.48C119.358 8.66667 119.465 8.90667 119.465 9.2V10.84C120.078 9.98667 120.865 9.33333 121.825 8.88C122.812 8.42667 123.945 8.2 125.225 8.2H126.865C127.158 8.2 127.385 8.29333 127.545 8.48C127.732 8.66667 127.825 8.89333 127.825 9.16V12.04C127.825 12.3067 127.732 12.5333 127.545 12.72C127.385 12.9067 127.158 13 126.865 13H123.745C122.465 13 121.465 13.36 120.745 14.08C120.052 14.8 119.705 15.7867 119.705 17.04V28.04C119.705 28.3067 119.612 28.5333 119.425 28.72C119.238 28.9067 118.998 29 118.705 29H115.225Z" fill="#212130"/>
<path d="M129.516 29C129.25 29 129.023 28.9067 128.836 28.72C128.65 28.5333 128.556 28.3067 128.556 28.04V24.08C128.556 23.7867 128.65 23.5467 128.836 23.36C129.023 23.1733 129.25 23.08 129.516 23.08H133.516C133.783 23.08 134.01 23.1733 134.196 23.36C134.383 23.5467 134.476 23.7867 134.476 24.08V28.04C134.476 28.3067 134.383 28.5333 134.196 28.72C134.01 28.9067 133.783 29 133.516 29H129.516Z" fill="#16A34A"/>
</svg>
